<svg width="12" height="12" viewBox="0 0 12 12" fill="none" xmlns="http://www.w3.org/2000/svg">
<path d="M6 0C2.68664 0 0 2.68664 0 6C0 9.31336 2.68664 12 6 12C9.31336 12 12 9.31336 12 6C12 2.68664 9.31336 0 6 0ZM5.97691 9.83288C5.60912 9.83288 5.31061 9.53436 5.31061 9.16657C5.31061 8.79879 5.60912 8.50027 5.97691 8.50027C6.34469 8.50027 6.64321 8.79879 6.64321 9.16657C6.64321 9.53436 6.34469 9.83288 5.97691 9.83288ZM6.64321 7.05552C6.64321 7.26168 6.47499 7.42991 6.26883 7.42991H5.68334C5.47718 7.42991 5.30896 7.26168 5.30896 7.05552V2.64871C5.30896 2.44255 5.47718 2.27433 5.68334 2.27433H6.26883C6.47499 2.27433 6.64321 2.44255 6.64321 2.64871V7.05552Z" fill="#46C0FF"/>
</svg>
