<svg width="10" height="17" viewBox="0 0 10 17" fill="none" xmlns="http://www.w3.org/2000/svg">
<path id="Vector" d="M6.11362 7.42605V4.19473L6.84965 4.74621C7.055 4.90138 7.34373 4.85316 7.49419 4.64137L8.26885 3.54469C8.4193 3.33291 8.37254 3.03515 8.16718 2.87998L4.99739 0.5L1.82759 2.87998C1.62223 3.03515 1.57547 3.33291 1.72593 3.54469L2.50058 4.64137C2.65104 4.85316 2.93977 4.90138 3.14512 4.74621L3.88115 4.19473V7.42605C1.92112 7.94608 0.483642 9.80183 0.530406 11.9973C0.581236 14.3668 2.41926 16.3441 4.71477 16.4909C7.31322 16.6566 9.47047 14.5324 9.47047 11.8903C9.47047 9.74312 8.04722 7.93769 6.11973 7.42605H6.11362ZM4.99535 14.1948C3.76119 14.1948 2.76084 13.1632 2.76084 11.8903C2.76084 10.6175 3.76119 9.58585 4.99535 9.58585C6.22952 9.58585 7.22986 10.6175 7.22986 11.8903C7.22986 13.1632 6.22952 14.1948 4.99535 14.1948Z" fill="#333439"/>
</svg>
