<svg width="32" height="24" viewBox="0 0 32 24" fill="none" xmlns="http://www.w3.org/2000/svg">
<g id="Group">
<path id="Vector" d="M7.06511 15.3873C6.3928 14.4831 6.0714 13.3396 6.16281 12.1662C6.25422 10.9928 6.74665 9.92908 7.54575 9.17119L12.2283 4.7435C12.3934 4.58727 12.6028 4.50083 12.821 4.50083H15.4896C15.7343 4.50083 15.9673 4.61052 16.1412 4.80664L19.4821 8.57285C20.2812 9.47368 21.5698 9.48366 22.3807 8.60278C23.2182 7.69197 23.1975 6.15956 22.3719 5.23546L18.86 1.31633C18.1051 0.468685 17.1055 0 16.041 0H10.347C8.95229 0 7.64011 0.611636 6.65524 1.72521L6.34267 2.07756H0.919997C0.409869 2.07756 0 2.54294 0 3.11468V14.1939C0 14.769 0.412818 15.231 0.919997 15.231H3.52666C4.64422 16.9529 6.44883 18 8.3596 18H9.18524C9.02011 17.6044 8.90806 17.1823 8.85498 16.7468C8.16498 16.4942 7.54575 16.0288 7.06806 15.3873H7.06511Z" fill="#B7BCC2"/>
<path id="Vector_2" d="M31.0208 5H25.5938C25.9753 5.65029 26.1788 6.39072 26.182 7.16656C26.182 8.3094 25.7464 9.38786 24.9484 10.1959C24.125 11.0297 23.0473 11.445 21.9663 11.445C20.8854 11.445 19.8076 11.0297 18.9842 10.1959L15.6746 6.84463H13.5699L8.7979 10.8977C7.85366 11.7025 7.72967 13.1287 8.5213 14.0848C9.31293 15.0409 10.7245 15.1664 11.6688 14.3648C10.7245 15.1697 10.6005 16.5958 11.3922 17.5519C12.1838 18.508 13.5954 18.6336 14.5396 17.832L15.0483 17.4006C14.104 18.2054 13.9801 19.6315 14.7717 20.5877C15.5665 21.5438 16.9749 21.6693 17.9191 20.8677L18.9333 20.005C17.9891 20.8098 17.8651 22.2359 18.6567 23.1921C19.4515 24.1482 20.8599 24.2737 21.8042 23.4721L28.5505 17.7386H31.0081C31.5581 17.7386 32 17.2879 32 16.7342V6.00441C32 5.44748 31.5549 5 31.0081 5H31.0208Z" fill="#B7BCC2"/>
</g>
</svg>
