<svg width="20" height="20" viewBox="0 0 20 20" fill="none" xmlns="http://www.w3.org/2000/svg">
<path d="M4.00204 9.49999C5.55362 9.49999 6.88214 8.56182 7.4562 7.22018H19.754V4.26791H7.4562C6.88214 2.92626 5.55362 1.9881 4.00204 1.9881C1.92889 1.9881 0.246094 3.67089 0.246094 5.74404C0.246094 7.81719 1.92889 9.49999 4.00204 9.49999Z" fill="#5D5F67"/>
<path d="M15.9981 10.5C14.4465 10.5 13.118 11.4382 12.5439 12.7798H0.246094V15.7321H12.5439C13.118 17.0737 14.4465 18.0119 15.9981 18.0119C18.0713 18.0119 19.754 16.3291 19.754 14.2559C19.754 12.1828 18.0713 10.5 15.9981 10.5Z" fill="#5D5F67"/>
</svg>
