<svg width="10" height="17" viewBox="0 0 10 17" fill="none" xmlns="http://www.w3.org/2000/svg">
<path id="Vector" d="M9.47047 5.07073C9.47047 2.44888 7.31325 0.34475 4.71482 0.509005C2.42137 0.654548 0.583364 2.61522 0.530501 4.96469C0.481704 7.13952 1.92121 8.98168 3.88121 9.49731V11.9258H2.82801C2.57386 11.9258 2.36647 12.1379 2.36647 12.3978V13.743C2.36647 14.0029 2.57386 14.215 2.82801 14.215H3.88121V16.028C3.88121 16.2879 4.0886 16.5 4.34275 16.5H5.65822C5.91237 16.5 6.11976 16.2879 6.11976 16.028V14.215H7.17296C7.42711 14.215 7.6345 14.0029 7.6345 13.743V12.3978C7.6345 12.1379 7.42711 11.9258 7.17296 11.9258H6.11976V9.49731C8.04724 8.98999 9.47047 7.19982 9.47047 5.07073ZM4.99947 7.35575C3.76532 7.35575 2.76499 6.3328 2.76499 5.07073C2.76499 3.80867 3.76532 2.78571 4.99947 2.78571C6.23362 2.78571 7.23395 3.80867 7.23395 5.07073C7.23395 6.3328 6.23362 7.35575 4.99947 7.35575Z" fill="#333439"/>
</svg>
