<svg width="22" height="20" viewBox="0 0 22 20" fill="none" xmlns="http://www.w3.org/2000/svg">
<g id="Group">
<path id="Vector" d="M13.3552 3.34287L2.33941 14.3586C2.28322 14.4148 2.24389 14.4851 2.22422 14.5609L1.00212 19.4606C0.965597 19.6095 1.00774 19.764 1.11731 19.8736C1.19878 19.955 1.30835 20 1.42353 20C1.45725 20 1.49377 19.9944 1.52748 19.9859L6.42713 18.7638C6.50298 18.7442 6.57322 18.7048 6.62941 18.6486L17.6452 7.63287L13.3524 3.34006L13.3552 3.34287Z" fill="#333439"/>
<path id="Vector_2" d="M20.3759 1.84264L19.151 0.617724C18.3307 -0.205439 16.9007 -0.205439 16.0831 0.614915L14.5801 2.11796L18.8729 6.41077L20.3759 4.90772C20.7861 4.49755 21.0109 3.95533 21.0109 3.37378C21.0109 2.79222 20.7861 2.25 20.3759 1.83983V1.84264Z" fill="#333439"/>
</g>
</svg>
