<svg width="20" height="20" viewBox="0 0 20 20" fill="none" xmlns="http://www.w3.org/2000/svg">
<path d="M18.9194 0.894966C18.5741 0.748903 18.2802 0.807329 18.0353 1.07821L16.3908 2.75926C15.4887 1.88288 14.4602 1.20303 13.3003 0.722348C12.1404 0.241668 10.9418 0 9.70459 0C8.39003 0 7.13474 0.265566 5.93874 0.794049C4.74274 1.32253 3.70914 2.03426 2.84307 2.92923C1.97443 3.82419 1.28363 4.88647 0.770694 6.11871C0.257756 7.35095 0 8.64427 0 9.99868C0 11.3531 0.257756 12.6464 0.770694 13.8786C1.28363 15.1109 1.97443 16.1758 2.84307 17.0708C3.71172 17.9657 4.74274 18.6775 5.93874 19.2059C7.13474 19.7344 8.39003 20 9.70459 20C11.1532 20 12.5322 19.6866 13.839 19.0546C15.1459 18.4252 16.2568 17.5382 17.177 16.3909C17.244 16.3033 17.2749 16.2077 17.2724 16.0988C17.2672 15.9899 17.2285 15.9023 17.1512 15.8306L15.4191 14.0327C15.3263 13.9556 15.2206 13.9158 15.102 13.9158C14.968 13.9344 14.8701 13.9849 14.8108 14.0725C14.1947 14.8984 13.4421 15.5358 12.5477 15.9873C11.6558 16.4387 10.7073 16.6645 9.70459 16.6645C8.82821 16.6645 7.99308 16.4892 7.1966 16.136C6.40013 15.7854 5.71192 15.3101 5.12939 14.7099C4.54685 14.1097 4.08547 13.4006 3.74523 12.58C3.40498 11.7594 3.23228 10.899 3.23228 9.99602C3.23228 9.09308 3.40241 8.22998 3.74523 7.41203C4.08547 6.59142 4.54685 5.88235 5.12939 5.28217C5.71192 4.68198 6.40013 4.20661 7.1966 3.85606C7.99308 3.50551 8.82821 3.32758 9.70459 3.32758C11.3981 3.32758 12.8699 3.92245 14.1174 5.1122L12.3724 6.9101C12.1121 7.17036 12.0528 7.47046 12.1945 7.80773C12.3389 8.15562 12.5863 8.32825 12.9395 8.32825H18.6024C18.8215 8.32825 19.0122 8.24592 19.172 8.08126C19.3319 7.91661 19.4118 7.72009 19.4118 7.49436V1.65981C19.4118 1.29598 19.2468 1.03838 18.9194 0.892312V0.894966Z" fill="#333439"/>
</svg>
