<svg width="34" height="26" viewBox="0 0 34 26" fill="none" xmlns="http://www.w3.org/2000/svg">
<g id="Group 371">
<g id="Group">
<path id="Vector" d="M30.8719 6.40217C28.4754 6.07175 26.6402 7.94276 26.1625 9.55501C24.7294 14.543 31.6242 15.4945 33.2405 10.6577C33.9013 8.58366 32.8583 6.71267 30.8719 6.40217Z" fill="#151513"/>
<path id="Vector_2" d="M22.2174 8.71116C24.6218 8.71116 26.5764 6.74858 26.5764 4.34413C26.3376 -1.44804 18.0972 -1.44804 17.8623 4.34413C17.8623 6.74858 19.8169 8.71116 22.2134 8.71116H22.2174Z" fill="#151513"/>
<path id="Vector_3" d="M7.83868 9.91366C7.36495 8.30539 5.52181 6.43837 3.11338 6.76878C-1.3452 7.55302 0.541734 14.1812 4.90079 14.1971C7.36893 14.1414 8.51145 12.143 7.8347 9.9097L7.83868 9.91366Z" fill="#151513"/>
<path id="Vector_4" d="M11.6843 8.71116C14.0808 8.71116 16.0354 6.74858 16.0354 4.34413C15.8005 -1.44804 7.56412 -1.44804 7.32129 4.34413C7.32129 6.74858 9.27589 8.71116 11.6803 8.71116H11.6843Z" fill="#151513"/>
<path id="Vector_5" d="M11.6405 12.8192L6.82361 18.7268C4.45101 21.6369 6.52106 25.9999 10.279 25.9999H23.4477C27.2057 25.9999 29.2757 21.6369 26.9031 18.7268L22.0863 12.8192C19.3912 9.51114 14.3355 9.51114 11.6405 12.8192Z" fill="#151513"/>
</g>
</g>
</svg>
