<svg width="24" height="28" viewBox="0 0 24 28" fill="none" xmlns="http://www.w3.org/2000/svg">
<g id="Group">
<path id="Vector" fill-rule="evenodd" clip-rule="evenodd" d="M11.9531 0C8.08597 0 4.9541 3.13187 4.9541 6.99898C4.9541 10.8661 8.08597 13.998 11.9531 13.998C15.8202 13.998 18.9521 10.8661 18.9521 6.99898C18.9521 3.13187 15.8202 0 11.9531 0Z" fill="#B7BCC2"/>
<path id="Vector_2" fill-rule="evenodd" clip-rule="evenodd" d="M23.6804 22.7801C23.6682 22.0408 23.4611 21.2731 22.998 20.5175C21.1091 17.4263 17.5426 15.3993 11.9938 15.3993C6.44494 15.3993 2.87843 17.4222 0.989558 20.5175C0.526479 21.2731 0.319315 22.0408 0.307129 22.7801V27.9918H6.22561C6.28247 27.9918 6.33934 27.9999 6.40027 27.9999H17.5995C17.6563 27.9999 17.7132 27.9918 17.7741 27.9918H23.6926V22.7801H23.6804Z" fill="#B7BCC2"/>
</g>
</svg>
