<svg width="18" height="18" viewBox="0 0 18 18" fill="none" xmlns="http://www.w3.org/2000/svg">
<path d="M15.296 2.11953H14.3971V0.501025C14.3971 0.223497 14.1736 0 13.8961 0H13.0979C12.8203 0 12.5968 0.223497 12.5968 0.501025V2.11953H5.39829V0.501025C5.39829 0.223497 5.1748 0 4.89727 0H4.09907C3.82154 0 3.59805 0.223497 3.59805 0.501025V2.11953H2.69915C1.20835 2.11953 0 3.32789 0 4.81868V5.71758H17.9976V4.81868C17.9976 3.32789 16.7892 2.11953 15.2984 2.11953H15.296Z" fill="#5D5F67"/>
<path d="M0 14.6579C0 16.1487 1.20835 17.357 2.69915 17.357H15.2985C16.7893 17.357 17.9976 16.1487 17.9976 14.6579V7.45935H0V14.6579Z" fill="#5D5F67"/>
</svg>
