<svg width="12" height="15" viewBox="0 0 12 15" fill="none" xmlns="http://www.w3.org/2000/svg">
<g id="&#236;&#156;&#132;&#236;&#185;&#152;" clip-path="url(#clip0_707_1411)">
<g id="01 location">
<path id="Vector" d="M11.3012 4.44648C10.6019 2.09857 8.45379 0.5 6.00597 0.5C3.55816 0.5 1.41008 2.09857 0.7107 4.44648C0.460923 5.34567 0.460923 6.29483 0.660745 7.24398C1.01043 8.39295 2.00954 10.3912 4.60722 13.4884C4.70713 13.6383 4.857 13.7881 4.95691 13.888C5.10678 14.0879 5.3066 14.2377 5.50642 14.3876C5.80615 14.5375 6.15584 14.5375 6.45557 14.3876C6.65539 14.2377 6.85521 14.0879 7.00508 13.888C7.10499 13.7382 7.25486 13.5883 7.35477 13.4884C9.95245 10.4411 10.9516 8.39295 11.2513 7.24398C11.551 6.29483 11.551 5.34567 11.3012 4.44648ZM8.50374 5.99509C8.50374 7.39385 7.40472 8.49286 6.00597 8.49286C4.60722 8.49286 3.5082 7.39385 3.5082 5.99509C3.5082 4.59634 4.60722 3.49732 6.00597 3.49732C7.40472 3.49732 8.50374 4.59634 8.50374 5.99509Z" fill="#5D5F67"/>
</g>
</g>
<defs>
<clipPath id="clip0_707_1411">
<rect width="10.9661" height="14" fill="white" transform="translate(0.516602 0.5)"/>
</clipPath>
</defs>
</svg>
