<svg width="21" height="21" viewBox="0 0 21 21" fill="none" xmlns="http://www.w3.org/2000/svg">
<g clip-path="url(#clip0_702_2488)">
<path d="M1.91234 0.832042L0.829217 1.91517C0.580517 2.16387 0.580517 2.56709 0.829217 2.81579L18.4707 20.4573C18.7194 20.706 19.1226 20.706 19.3713 20.4573L20.4544 19.3741C20.7031 19.1254 20.7031 18.7222 20.4544 18.4735L2.81296 0.832042C2.56426 0.583342 2.16104 0.583342 1.91234 0.832042Z" fill="#231815"/>
<path d="M18.4707 0.8301L0.829217 18.4716C0.580517 18.7203 0.580517 19.1235 0.829217 19.3722L1.91234 20.4553C2.16104 20.704 2.56426 20.704 2.81296 20.4553L20.4544 2.81385C20.7031 2.56515 20.7031 2.16192 20.4544 1.91322L19.3713 0.830099C19.1226 0.581399 18.7194 0.5814 18.4707 0.8301Z" fill="#231815"/>
</g>
<defs>
<clipPath id="clip0_702_2488">
<rect width="19.9972" height="20" fill="white" transform="translate(0.641602 0.64502)"/>
</clipPath>
</defs>
</svg>
